<?xml version="1.0" encoding="UTF-8"?>
<svg id="Layer_2" data-name="Layer 2" xmlns="http://www.w3.org/2000/svg" xmlns:xlink="http://www.w3.org/1999/xlink" viewBox="0 0 217.95 213.03">
  <defs>
    <style>
      .cls-1 {
        fill: none;
      }

      .cls-2 {
        clip-path: url(#clippath);
      }
    </style>
    <clipPath id="clippath">
      <rect class="cls-1" x="0" width="217.93" height="213.01"/>
    </clipPath>
  </defs>
  <g id="Layer_6" data-name="Layer 6">
    <g class="cls-2">
      <path d="M208.09,0h-102.02c-2.48,0-4.84.92-6.65,2.61L3.16,85.42c-2.01,1.87-3.16,4.49-3.16,7.23v110.55c0,5.43,4.4,9.83,9.83,9.83h109.58c2.59,0,5.08-1.02,6.93-2.85l1.53-1.52h.63v-.61l86.53-83.85c1.87-1.85,2.9-4.36,2.9-6.99V9.83c0-5.43-4.4-9.83-9.83-9.83h-.02ZM109.49,8.74h68.84c8.85,0,13.2,10.78,6.82,16.91l-65.75,59.73.46.48H40.76c-8.95,0-13.25-11-6.66-17.06L102.82,11.35c1.81-1.66,4.2-2.61,6.65-2.61h.02ZM119.75,104.44v.33c0,5.43-4.4,9.83-9.83,9.83H18.58c-5.43,0-9.83-4.4-9.83-9.83v-.33c0-5.43,4.4-9.83,9.83-9.83h91.34c5.43,0,9.83,4.4,9.83,9.83ZM119.75,133.19v2.03c0,5.43-4.4,9.83-9.83,9.83H18.58c-5.43,0-9.83-4.4-9.83-9.83v-2.03c0-5.43,4.4-9.83,9.83-9.83h91.34c5.43,0,9.83,4.4,9.83,9.83ZM119.75,163.64v2.37c0,5.43-4.4,9.83-9.83,9.83H18.58c-5.43,0-9.83-4.4-9.83-9.83v-2.37c0-5.43,4.4-9.83,9.83-9.83h91.34c5.43,0,9.83,4.4,9.83,9.83ZM18.58,184.58h91.34c5.43,0,9.83,4.4,9.83,9.83s-4.4,9.83-9.83,9.83H18.58c-5.43,0-9.83-4.4-9.83-9.83s4.4-9.83,9.83-9.83ZM128.49,172.07v-79.12c0-2.68,1.09-5.23,3.01-7.08l61.02-55.16c6.25-6.01,16.66-1.59,16.66,7.08v75.77c0,2.63-1.05,5.14-2.9,6.99l-61.02,58.53c-6.21,6.16-16.77,1.76-16.77-6.99v-.02Z"/>
    </g>
  </g>
</svg>