<?xml version="1.0" encoding="UTF-8"?>
<svg id="Layer_2" data-name="Layer 2" xmlns="http://www.w3.org/2000/svg" xmlns:xlink="http://www.w3.org/1999/xlink" viewBox="0 0 210.89 211.81">
  <defs>
    <style>
      .cls-1 {
        fill: none;
      }

      .cls-2 {
        clip-path: url(#clippath);
      }
    </style>
    <clipPath id="clippath">
      <rect class="cls-1" width="210.89" height="211.81"/>
    </clipPath>
  </defs>
  <g id="Layer_6" data-name="Layer 6">
    <g class="cls-2">
      <g>
        <path d="M209.87,50.95c0-27.43-22.31-49.76-49.76-49.76-22.83,0-42.67,15.44-48.25,37.54-1,3.97-1.52,8.08-1.52,12.22v49.76h49.76c27.43,0,49.76-22.31,49.76-49.76ZM117.74,50.95c0-3.53.43-7.02,1.29-10.41,4.75-18.82,21.65-31.96,41.09-31.96,23.37,0,42.37,19,42.37,42.37s-19,42.37-42.37,42.37h-42.37v-42.37h-.02Z"/>
        <path d="M1.48,160.73c0,27.32,22.22,49.54,49.54,49.54,22.72,0,42.48-15.38,48.04-37.38,1-3.96,1.5-8.06,1.5-12.16v-49.54h-49.54c-27.32,0-49.54,22.22-49.54,49.54ZM93.21,160.73c0,3.51-.43,6.99-1.28,10.35-4.73,18.73-21.55,31.81-40.89,31.81-23.26,0-42.17-18.91-42.17-42.17s18.91-42.17,42.17-42.17h42.17v42.17Z"/>
        <path d="M172.93,112.69c-3.96-1-8.1-1.53-12.37-1.53h-50.32v50.32c0,27.78,22.53,50.32,50.32,50.32s50.32-22.53,50.32-50.32c0-23.53-16.14-43.28-37.97-48.78h.02Z"/>
        <path d="M50.32,0C22.53,0,0,22.53,0,50.32c0,23.53,16.14,43.28,37.97,48.78,3.96,1,8.1,1.53,12.37,1.53h50.32v-50.32c-.02-27.78-22.53-50.32-50.34-50.32Z"/>
      </g>
    </g>
  </g>
</svg>